<svg xmlns="http://www.w3.org/2000/svg" xmlns:xlink="http://www.w3.org/1999/xlink" xmlns:fi="http://pattern.flaticon.com/" x="0" y="0" width="1400" height="700" viewBox="0 0 2177.777777777778 1088.888888888889"><rect x="0px" y="0px" width="100%" height="100%" opacity="0.16" fill="#af51bf"/><defs><g transform="matrix(0.1171872690320015 0 0 0.1171872690320015 209 162)" id="L1_0"><path d="M209.431,249.241h-46.858v-9.006c-0.001-4.143-3.359-7.5-7.501-7.5c-4.142,0-7.5,3.357-7.5,7.5v9.006h-46.858    c-7.444,0-13.5,6.056-13.5,13.5c0,19.176,0,113.714,0,130.128c0,3.84,2.1,7.355,5.48,9.176c3.379,1.819,7.471,1.638,10.678-0.475    l6.193-4.084l7.403,4.881c4.716,3.111,10.811,3.11,15.526,0.001l7.404-4.882l7.935,5.232c2.196,1.447,4.712,2.172,7.23,2.171    c2.517,0,5.036-0.724,7.233-2.172l7.933-5.231l7.868,5.189c4.433,2.923,10.162,2.923,14.594,0l7.87-5.189l6.316,4.164    c3.184,2.1,7.249,2.279,10.608,0.472c3.358-1.809,5.444-5.302,5.444-9.116V283.742v-21.001    C222.931,255.297,216.875,249.241,209.431,249.241z M206.751,383.602c-3.761-2.48-8.622-2.479-12.384,0.001l-8.973,5.916    l-8.975-5.918c-3.764-2.479-8.624-2.478-12.384,0.003l-8.97,5.916l-8.976-5.918c-1.88-1.24-4.035-1.859-6.191-1.859    s-4.313,0.62-6.193,1.86l-8.973,5.916l-8.973-5.916c-3.763-2.48-8.624-2.48-12.387,0l-1.158,0.764v-93.124h105.717v93.134    L206.751,383.602z M207.93,276.241H102.212v-12h45.358v0.661c0,4.143,3.358,7.5,7.5,7.5c4.142,0,7.5-3.357,7.5-7.5v-0.661h45.358    V276.241z" fill="#616161"/><path d="M431.579,352.34l-45.542-122.045c-2.602-6.974-10.393-10.529-17.368-7.928l-43.902,16.383l-3.148-8.438    c-1.447-3.881-5.767-5.85-9.648-4.404c-3.881,1.447-5.853,5.768-4.404,9.648l3.148,8.437l-43.903,16.382    c-6.975,2.605-10.532,10.396-7.929,17.37l7.342,19.676l38.152,102.242c1.342,3.598,4.539,6.157,8.343,6.681    c9.062,1.242,12.091-8.59,14.211-10.17l8.644,1.985c5.502,1.264,11.214-0.866,14.545-5.428l5.23-7.162l9.266,2.129    c5.127,1.177,10.446-0.81,13.548-5.059l5.603-7.674l9.188,2.111c5.18,1.186,10.542-0.817,13.672-5.104l5.558-7.612    c4.063,0.352,11.742,4.968,17.478-1.573C432.181,359.916,432.914,355.913,431.579,352.34z M273.46,273.904l42.496-15.857    c0.077,0.1,1.513,5.5,7.259,5.5c5.203,0,8.859-5.21,7.025-10.124l-0.231-0.62l42.497-15.859l4.195,11.243l-99.047,36.96    L273.46,273.904z M401.53,353.517l-6.338,8.681l-10.475-2.406c-4.393-1.011-8.948,0.691-11.605,4.331l-6.336,8.679l-10.475-2.406    c-4.393-1.011-8.946,0.69-11.605,4.331l-6.339,8.68l-10.48-2.407c-7.484-1.712-11.5,4.257-11.6,4.331l-0.817,1.12l-32.558-87.248    l99.047-36.96l32.562,87.258C414.18,349.514,406.552,346.64,401.53,353.517z" fill="#616161"/><path d="M181.963,312.023H128.18c-4.142,0-7.5,3.358-7.5,7.5c0,4.143,3.358,7.5,7.5,7.5h53.783c4.142,0,7.5-3.357,7.5-7.5    C189.463,315.381,186.105,312.023,181.963,312.023z" fill="#616161"/><path d="M181.963,343.066H128.18c-4.142,0-7.5,3.358-7.5,7.5c0,4.143,3.358,7.5,7.5,7.5h53.783c4.142,0,7.5-3.357,7.5-7.5    C189.463,346.424,186.105,343.066,181.963,343.066z" fill="#616161"/><path d="M377.305,323.441l-27.184-24.125c-7.933-7.041-20.52-1.999-21.392,8.576l-2.99,36.221    c-0.788,9.555,8.758,16.583,17.636,13.018l30.172-12.096C382.445,341.47,384.461,329.791,377.305,323.441z M340.972,341.936    l2.359-28.589l21.455,19.041L340.972,341.936z" fill="#616161"/><path d="M490.999,469.999h-0.979V221.543c0-4.143-3.357-7.5-7.5-7.5s-7.5,3.357-7.5,7.5v248.455H36.963V143.763    c14.901,0,26.808,0,41.656,0c4.142,0,7.5-3.357,7.5-7.5s-3.358-7.5-7.5-7.5c-12.592,0-45.056,0-57.619,0c-3.309,0-6-2.691-6-6    c0-3.309,2.691-6,6-6c50.162,0,408.222,0,469.984,0c3.309,0,6,2.691,6,6c0,3.309-2.691,6-6,6c-14.783,0-360.992,0-377.364,0    c-4.142,0-7.5,3.357-7.5,7.5s3.358,7.5,7.5,7.5c10.19,0,341.702,0,361.4,0v42.778c0,4.143,3.357,7.5,7.5,7.5    c4.143,0,7.5-3.357,7.5-7.5v-42.778h0.963c11.579,0,21.001-9.421,21.001-21.001s-9.421-21.001-21.001-21.001h-44.099    L277.162,10.379c-10.775-13.841-31.568-13.833-42.338,0L65.1,101.762H21.001C9.42,101.762,0,111.183,0,122.763    c0,11.579,9.42,21.001,21.001,21.001h0.962v326.235h-0.947c-11.579,0-21.001,9.421-21.001,21.001    c0,11.579,9.42,21.001,21.001,21.001h367.559c4.143,0,7.5-3.357,7.5-7.5c0-4.142-3.357-7.5-7.5-7.5H21.017c-3.308,0-6-2.691-6-6    s2.692-6,6-6H491c3.309,0,6,2.691,6,6s-2.691,6-6,6h-67.423c-4.143,0-7.5,3.358-7.5,7.5c0,4.143,3.357,7.5,7.5,7.5H491    c11.579,0,21.001-9.421,21.001-21.001C512.001,479.42,502.579,469.999,490.999,469.999z M255.992,14.999    c6.717,0,9.946,5.385,9.846,5.292c5.184,7.79-0.403,18.352-9.846,18.352c-6.519,0-11.822-5.303-11.822-11.821    S249.473,14.999,255.992,14.999z M229.406,30.332c1.725,13.136,12.985,23.313,26.586,23.313s24.861-10.176,26.586-23.313    l132.665,71.43H96.741L229.406,30.332z" fill="#616161"/></g><path d="M472.436,0H39.564C17.749,0,0,17.749,0,39.564v432.871C0,494.251,17.749,512,39.564,512h432.871    C494.251,512,512,494.251,512,472.436V39.564C512,17.749,494.251,0,472.436,0z M248.5,497H39.564C26.02,497,15,485.98,15,472.436    V263.5h80.678c12.976,0,23.532-10.546,23.532-23.508v-16.059c0-9.58-3.904-18.289-10.711-23.896    c-8.476-6.98-13.337-17.262-13.337-28.207c0-11.066,4.932-21.422,13.532-28.411c8.599-6.988,19.907-9.665,31.03-7.342    c14.075,2.938,25.308,14.456,27.953,28.658c2.482,13.334-2.141,26.436-12.366,35.045c-7.003,5.896-11.019,14.605-11.019,23.894    v16.304c0,12.97,10.552,23.521,23.521,23.521H248.5v80.678c0,4.705-3.816,8.532-8.508,8.532h-16.371    c-4.819,0-9.326-2.07-12.365-5.68c-12.134-14.412-30.549-20.938-49.266-17.452c-20.114,3.745-36.428,19.673-40.596,39.633    c-3.25,15.563,0.536,31.438,10.385,43.557c9.85,12.12,24.448,19.071,40.051,19.071c15.443,0,29.945-6.853,39.787-18.802    c2.746-3.334,7.235-5.247,12.316-5.247h16.059c4.691,0,8.508,3.827,8.508,8.532V497z M497,248.5h-8.532    c-4.143,0-7.5,3.357-7.5,7.5s3.357,7.5,7.5,7.5H497v208.936C497,485.98,485.98,497,472.436,497H263.5v-80.678    c0-12.976-10.545-23.532-23.508-23.532h-16.059c-9.579,0-18.289,3.904-23.895,10.711c-6.981,8.477-17.263,13.338-28.208,13.338    c-11.066,0-21.422-4.932-28.411-13.531c-6.988-8.599-9.665-19.909-7.342-31.03c2.939-14.075,14.456-25.309,28.658-27.953    c13.333-2.484,26.435,2.14,35.046,12.367c5.896,7.002,14.585,11.019,23.839,11.019h16.371c12.962,0,23.508-10.557,23.508-23.532    V263.5h80.678c4.705,0,8.532,3.827,8.532,8.532v16.293c0,4.853-2.07,9.379-5.682,12.419    c-14.411,12.135-20.935,30.552-17.45,49.266c3.745,20.113,19.672,36.428,39.633,40.596c3.654,0.763,7.325,1.138,10.961,1.138    c11.849,0,23.323-3.985,32.596-11.522c12.12-9.851,19.071-24.448,19.071-40.052c0-15.444-6.853-29.945-18.801-39.785    c-3.286-2.706-5.248-7.328-5.248-12.363v-15.988c0-4.705,3.827-8.532,8.532-8.532h40.081c4.143,0,7.5-3.357,7.5-7.5    s-3.357-7.5-7.5-7.5h-40.081c-12.976,0-23.532,10.557-23.532,23.532v15.988c0,9.608,3.904,18.335,10.712,23.941    c8.476,6.98,13.337,17.262,13.337,28.207c0,11.066-4.932,21.423-13.531,28.411c-8.599,6.99-19.911,9.668-31.03,7.342    c-14.075-2.938-25.309-14.456-27.953-28.658c-2.482-13.334,2.141-26.436,12.365-35.045c7.004-5.896,11.021-14.605,11.021-23.894    v-16.293c0-12.976-10.557-23.532-23.532-23.532H263.5v-80.688c0-4.699,3.822-8.521,8.521-8.521h16.304    c4.853,0,9.38,2.07,12.419,5.68c12.134,14.412,30.55,20.938,49.266,17.452c20.113-3.745,36.428-19.672,40.596-39.633    c3.25-15.562-0.535-31.438-10.385-43.557c-9.851-12.12-24.448-19.071-40.052-19.071c-15.444,0-29.945,6.853-39.785,18.801    c-2.747,3.335-7.236,5.248-12.317,5.248h-16.059c-4.691,0-8.508-3.827-8.508-8.532V55.597c0-4.143-3.357-7.5-7.5-7.5    c-4.142,0-7.5,3.357-7.5,7.5v40.081c0,12.976,10.546,23.532,23.508,23.532h16.059c9.579,0,18.289-3.904,23.896-10.712    c6.98-8.476,17.262-13.337,28.207-13.337c11.066,0,21.422,4.932,28.411,13.532c6.988,8.598,9.665,19.908,7.342,31.029    c-2.938,14.075-14.456,25.309-28.658,27.953c-13.334,2.485-26.436-2.141-35.045-12.367c-5.896-7.002-14.605-11.019-23.894-11.019    h-16.304c-12.97,0-23.521,10.552-23.521,23.521v80.69h-80.688c-4.699,0-8.521-3.822-8.521-8.521v-16.304    c0-4.854,2.07-9.38,5.68-12.419c14.412-12.135,20.936-30.552,17.451-49.266c-3.745-20.113-19.672-36.428-39.632-40.596    c-15.563-3.249-31.438,0.535-43.558,10.385c-12.12,9.851-19.071,24.448-19.071,40.052c0,15.444,6.853,29.945,18.802,39.785    c3.334,2.746,5.247,7.236,5.247,12.318v16.058c0,4.691-3.828,8.508-8.532,8.508H15V39.564C15,26.02,26.02,15,39.564,15H248.5    v8.532c0,4.143,3.358,7.5,7.5,7.5c4.143,0,7.5-3.357,7.5-7.5V15h208.936C485.98,15,497,26.02,497,39.564V248.5z" transform="matrix(0.1171875 0 0 0.1171875 10 285)" id="L1_2" fill="#616161"/><g transform="matrix(0.1171875 0 0 0.1171875 124 32.00000124454499)" id="L1_3"><path d="M451.72,237.26c-17.422-8.71-50.087-8.811-51.469-8.811c-4.142,0-7.5,3.358-7.5,7.5c0,4.142,3.358,7.5,7.5,7.5    c8.429,0.001,32.902,1.299,44.761,7.228c1.077,0.539,2.221,0.793,3.348,0.793c2.751,0,5.4-1.52,6.714-4.147    C456.927,243.618,455.425,239.113,451.72,237.26z" fill="#616161"/><path d="M489.112,344.041l-30.975-8.85c-1.337-0.382-2.271-1.62-2.271-3.011v-10.339c2.52-1.746,4.924-3.7,7.171-5.881    c10.89-10.568,16.887-24.743,16.887-39.915v-14.267l2.995-5.989c3.287-6.575,5.024-13.936,5.024-21.286v-38.65    c0-4.142-3.358-7.5-7.5-7.5H408.27c-26.244,0-47.596,21.352-47.596,47.596v0.447c0,6.112,1.445,12.233,4.178,17.699l3.841,7.682    v12.25c0,19.414,9.567,36.833,24.058,47.315l0.002,10.836c0,1.671,0,2.363-6.193,4.133l-15.114,4.318l-43.721-15.898    c0.157-2.063-0.539-4.161-2.044-5.742l-13.971-14.678v-24.64c1.477-1.217,2.933-2.467,4.344-3.789    c17.625-16.52,27.733-39.844,27.733-63.991v-19.678c5.322-11.581,8.019-23.836,8.019-36.457v-80.19c0-4.142-3.358-7.5-7.5-7.5    H232.037c-39.51,0-71.653,32.144-71.653,71.653v16.039c0,12.621,2.697,24.876,8.019,36.457v16.931    c0,28.036,12.466,53.294,32.077,69.946v25.22l-13.971,14.678c-1.505,1.581-2.201,3.679-2.044,5.742l-46.145,16.779    c-3.344,1.216-6.451,2.863-9.272,4.858l-7.246-3.623c21.57-9.389,28.403-22.594,28.731-23.25c1.056-2.111,1.056-4.597,0-6.708    c-5.407-10.814-6.062-30.635-6.588-46.561c-0.175-5.302-0.341-10.311-0.658-14.771c-2.557-35.974-29.905-63.103-63.615-63.103    s-61.059,27.128-63.615,63.103c-0.317,4.461-0.483,9.47-0.658,14.773c-0.526,15.925-1.182,35.744-6.588,46.558    c-1.056,2.111-1.056,4.597,0,6.708c0.328,0.656,7.147,13.834,28.76,23.234l-20.127,10.063C6.684,358.176,0,368.991,0,381.02    v55.409c0,4.142,3.358,7.5,7.5,7.5s7.5-3.358,7.5-7.5V381.02c0-6.312,3.507-11.987,9.152-14.81l25.063-12.531l8.718,8.285    c6.096,5.793,13.916,8.688,21.739,8.688c7.821,0,15.645-2.897,21.739-8.688l8.717-8.284l8.172,4.086    c-3.848,6.157-6.032,13.377-6.032,20.94v57.725c0,4.142,3.358,7.5,7.5,7.5c4.142,0,7.5-3.358,7.5-7.5v-57.725    c0-10.296,6.501-19.578,16.178-23.097l48.652-17.691l20.253,30.381c2.589,3.884,6.738,6.375,11.383,6.835    c0.518,0.051,1.033,0.076,1.547,0.076c4.098,0,8.023-1.613,10.957-4.546l12.356-12.356v78.124c0,4.142,3.358,7.5,7.5,7.5    c4.142,0,7.5-3.358,7.5-7.5v-78.124l12.356,12.356c2.933,2.934,6.858,4.547,10.957,4.547c0.513,0,1.029-0.025,1.546-0.076    c4.646-0.46,8.795-2.951,11.384-6.835l20.254-30.38l48.651,17.691c9.676,3.519,16.178,12.801,16.178,23.097v57.725    c0,4.142,3.358,7.5,7.5,7.5c4.142,0,7.5-3.358,7.5-7.5v-57.725c0-10.428-4.143-20.208-11.093-27.441l1.853-0.529    c1.869-0.534,4.419-1.265,6.979-2.52l19.149,19.149v69.066c0,4.142,3.358,7.5,7.5,7.5c4.142,0,7.5-3.358,7.5-7.5v-69.066    l19.016-19.016c1.011,0.514,2.073,0.948,3.191,1.267l30.976,8.85c7.07,2.02,12.009,8.567,12.009,15.921v62.044    c0,4.142,3.358,7.5,7.5,7.5c4.142,0,7.5-3.358,7.5-7.5v-62.044C512,360.371,502.588,347.892,489.112,344.041z M48.115,330.794    c-14.029-5.048-21.066-11.778-24.07-15.453c2.048-5.354,3.376-11.486,4.275-17.959c4.136,9.917,11.063,18.383,19.795,24.423    V330.794z M91.08,351.092c-6.397,6.078-16.418,6.077-22.813-0.001l-6.975-6.628c1.177-2.205,1.824-4.705,1.824-7.324v-7.994    c5.232,1.635,10.794,2.517,16.558,2.517c5.757,0,11.316-0.886,16.557-2.512l-0.001,7.988c0,2.62,0.646,5.121,1.824,7.327    L91.08,351.092z M79.676,316.662c-22.396,0-40.615-18.22-40.615-40.615c0-4.142-3.358-7.5-7.5-7.5c-0.42,0-0.83,0.043-1.231,0.11    c0.022-0.645,0.043-1.291,0.065-1.93c0.167-5.157,0.328-10.028,0.625-14.206c0.958-13.476,6.343-25.894,15.163-34.968    c8.899-9.156,20.793-14.198,33.491-14.198s24.591,5.042,33.491,14.198c8.82,9.074,14.205,21.492,15.163,34.968    c0.296,4.177,0.458,9.047,0.628,14.203c0.015,0.443,0.03,0.892,0.045,1.338c-8.16-12.572-20.762-21.837-37.045-27.069    c-15.043-4.833-27.981-4.534-28.527-4.52c-1.964,0.055-3.828,0.877-5.191,2.291l-13.532,14.034    c-2.875,2.982-2.789,7.73,0.193,10.605s7.73,2.788,10.605-0.193l11.26-11.677c9.697,0.474,40.894,4.102,53.027,30.819    C116.738,302.04,99.816,316.662,79.676,316.662z M111.229,330.819l0.001-8.945c8.725-6.007,15.662-14.457,19.801-24.449    c0.899,6.458,2.226,12.576,4.27,17.918C132.314,318.983,125.244,325.773,111.229,330.819z M183.403,209.145v-18.608    c0-1.129-0.255-2.244-0.746-3.261c-4.826-9.994-7.273-20.598-7.273-31.518V139.72c0-31.239,25.415-56.653,56.653-56.653h104.769    v72.692c0,10.92-2.447,21.524-7.273,31.518c-0.491,1.017-0.746,2.132-0.746,3.261v21.355c0,20.311-8.165,39.15-22.991,53.047    c-1.851,1.734-3.772,3.36-5.758,4.875c-0.044,0.03-0.086,0.063-0.129,0.094c-13.889,10.545-30.901,15.67-48.667,14.519    C213.201,281.965,183.403,248.897,183.403,209.145z M225.632,360.056c-0.052,0.052-0.173,0.175-0.418,0.149    c-0.244-0.024-0.34-0.167-0.381-0.229l-23.325-34.988l7.506-7.887l35.385,24.187L225.632,360.056z M256.095,331.113    l-40.615-27.762v-14c10.509,5.681,22.276,9.234,34.791,10.044c1.977,0.128,3.942,0.191,5.901,0.191    c14.341,0,28.143-3.428,40.538-9.935v13.7L256.095,331.113z M287.357,359.978c-0.041,0.062-0.137,0.205-0.381,0.229    c-0.245,0.031-0.365-0.098-0.418-0.149l-18.767-18.767l35.385-24.188l7.507,7.887L287.357,359.978z M424.308,353.65l-17.02-17.019    c0.297-1.349,0.465-2.826,0.464-4.455l-0.001-3.165c4.723,1.55,9.701,2.47,14.852,2.624c0.578,0.018,1.151,0.026,1.727,0.026    c5.692,0,11.248-0.86,16.536-2.501v3.02c0,1.496,0.188,2.962,0.542,4.371L424.308,353.65z M452.591,305.196    c-7.949,7.714-18.45,11.788-29.537,11.446c-21.704-0.651-39.361-19.768-39.361-42.613v-14.021c0-1.165-0.271-2.313-0.792-3.354    l-4.633-9.266c-1.697-3.395-2.594-7.195-2.594-10.991v-0.447c0-17.974,14.623-32.596,32.596-32.596h64.673v31.15    c0,5.034-1.19,10.075-3.441,14.578l-3.786,7.572c-0.521,1.042-0.792,2.189-0.792,3.354v16.038    C464.924,287.126,460.544,297.478,452.591,305.196z" fill="#616161"/><path d="M472.423,380.814c-4.142,0-7.5,3.358-7.5,7.5v48.115c0,4.142,3.358,7.5,7.5,7.5c4.142,0,7.5-3.358,7.5-7.5v-48.115    C479.923,384.173,476.565,380.814,472.423,380.814z" fill="#616161"/><path d="M39.577,390.728c-4.142,0-7.5,3.358-7.5,7.5v38.201c0,4.142,3.358,7.5,7.5,7.5c4.142,0,7.5-3.358,7.5-7.5v-38.201    C47.077,394.087,43.719,390.728,39.577,390.728z" fill="#616161"/><path d="M317.532,158.475c-28.366-28.366-87.715-22.943-111.917-19.295c-7.623,1.149-13.155,7.6-13.155,15.339v17.278    c0,4.142,3.358,7.5,7.5,7.5c4.142,0,7.5-3.358,7.5-7.5v-17.279c0-0.255,0.168-0.473,0.392-0.507    c9.667-1.457,28.85-3.705,48.725-2.38c23.388,1.557,40.328,7.428,50.349,17.45c2.929,2.929,7.678,2.929,10.606,0    C320.461,166.152,320.461,161.403,317.532,158.475z" fill="#616161"/><path d="M167.884,396.853c-4.142,0-7.5,3.358-7.5,7.5v32.077c0,4.142,3.358,7.5,7.5,7.5c4.142,0,7.5-3.358,7.5-7.5v-32.077    C175.384,400.212,172.026,396.853,167.884,396.853z" fill="#616161"/><path d="M344.306,396.853c-4.142,0-7.5,3.358-7.5,7.5v32.077c0,4.142,3.358,7.5,7.5,7.5c4.142,0,7.5-3.358,7.5-7.5v-32.077    C351.806,400.212,348.448,396.853,344.306,396.853z" fill="#616161"/></g></defs><g fi:class="KUsePattern"><pattern id="pattern_L1_0" width="350" height="350" patternUnits="userSpaceOnUse"><use xlink:href="#L1_0" x="-350" y="-350"/><use xlink:href="#L1_0" x="0" y="-350"/><use xlink:href="#L1_0" x="350" y="-350"/><use xlink:href="#L1_0" x="-350" y="0"/><use xlink:href="#L1_0" x="0" y="0"/><use xlink:href="#L1_0" x="350" y="0"/><use xlink:href="#L1_0" x="-350" y="350"/><use xlink:href="#L1_0" x="0" y="350"/><use xlink:href="#L1_0" x="350" y="350"/></pattern><rect x="0" y="0" width="100%" height="100%" fill="url(#pattern_L1_0)"/></g><g fi:class="KUsePattern"><pattern id="pattern_L1_2" width="350" height="350" patternUnits="userSpaceOnUse"><use xlink:href="#L1_2" x="-350" y="-350"/><use xlink:href="#L1_2" x="0" y="-350"/><use xlink:href="#L1_2" x="350" y="-350"/><use xlink:href="#L1_2" x="-350" y="0"/><use xlink:href="#L1_2" x="0" y="0"/><use xlink:href="#L1_2" x="350" y="0"/><use xlink:href="#L1_2" x="-350" y="350"/><use xlink:href="#L1_2" x="0" y="350"/><use xlink:href="#L1_2" x="350" y="350"/></pattern><rect x="0" y="0" width="100%" height="100%" fill="url(#pattern_L1_2)"/></g><g fi:class="KUsePattern"><pattern id="pattern_L1_3" width="350" height="350" patternUnits="userSpaceOnUse"><use xlink:href="#L1_3" x="-350" y="-350"/><use xlink:href="#L1_3" x="0" y="-350"/><use xlink:href="#L1_3" x="350" y="-350"/><use xlink:href="#L1_3" x="-350" y="0"/><use xlink:href="#L1_3" x="0" y="0"/><use xlink:href="#L1_3" x="350" y="0"/><use xlink:href="#L1_3" x="-350" y="350"/><use xlink:href="#L1_3" x="0" y="350"/><use xlink:href="#L1_3" x="350" y="350"/></pattern><rect x="0" y="0" width="100%" height="100%" fill="url(#pattern_L1_3)"/></g></svg>